#!OML:ASF X:\für Bonn\!DataBase\2005_08_11_Bastian_Final\c3d\Bastian.ASF
:FULLY-SPECIFIED
:DEGREES
316
root -1.26484 3.30351 26.0528 -969.05 -9.43751 -880.004
lowerback 71.3715 1.86574 16.0244
upperback 21.472 -4.58765 6.05827
thorax 4.52365 -9.63348 1.44674
lowerneck -23.1791 -9.56317 -11.5965
upperneck 0.148935 -11.2368 10.2106
head 4.8305 -5.40577 3.76798
rclavicle -4.77083e-015 -9.38264e-014
rhumerus -49.4856 49.7528 -104.186
rradius 33.8539
rwrist -12.1467
rhand -19.9326 -6.79684
rfingers 7.12502
rthumb 6.40484 -36.68
lclavicle -4.77083e-015 -9.38264e-014
lhumerus -217.75 -195.986 256.735
lradius 39.294
lwrist 53.8427
lhand -34.9519 -6.38867
lfingers 7.12502
lthumb -8.09831 23.4362
rfemur -64.8877 -49.4129 18.1341
rtibia 145.264
rfoot -17.6803 13.5156
rtoes -32.6223
lfemur -66.6077 7.60249 -30.8083
ltibia 107.909
lfoot -0.647646 -1.90121
ltoes 5.91322
317
root -1.2618 3.24717 26.0265 -969.436 -9.13431 -880.135
lowerback 71.4202 1.81142 16.1288
upperback 21.4562 -4.65168 6.16355
thorax 4.53302 -9.72512 1.54531
lowerneck -23.3313 -9.5162 -11.7386
upperneck 0.359427 -11.106 10.0972
head 4.90348 -5.33659 3.76376
rclavicle -6.20208e-014 -1.43125e-014
rhumerus -49.9909 49.2557 -104.888
rradius 33.4159
rwrist -12.2427
rhand -20.3223 -6.94421
rfingers 7.12502
rthumb 6.02868 -36.8384
lclavicle -6.20208e-014 -1.43125e-014
lhumerus -218.474 -195.883 256.833
lradius 39.772
lwrist 54.0586
lhand -35.0157 -6.11903
lfingers 7.12502
lthumb -8.15994 23.7034
rfemur -64.9041 -50.2338 18.1653
rtibia 145.605
rfoot -17.7502 13.5927
rtoes -32.5933
lfemur -66.5246 7.64692 -30.5555
ltibia 108.26
lfoot -0.494952 -1.57678
ltoes 7.2174
318
root -1.25805 3.19179 25.9964 -969.809 -8.86553 -880.29
lowerback 71.4084 1.73948 16.2388
upperback 21.4825 -4.74801 6.21157
thorax 4.58597 -9.81685 1.57689
lowerneck -23.4913 -9.44627 -11.7977
upperneck 0.532176 -10.9673 9.96908
head 4.95985 -5.26665 3.74403
rclavicle 2.14687e-014 -2.70347e-014
rhumerus -50.4807 48.7494 -105.63
rradius 33.1098
rwrist -12.4435
rhand -20.7036 -7.15853
rfingers 7.12502
rthumb 5.66055 -37.0629
lclavicle 2.14687e-014 -2.70347e-014
lhumerus -219.127 -195.705 256.897
lradius 40.251
lwrist 54.3803
lhand -35.0995 -5.88261
lfingers 7.12502
lthumb -8.24083 23.9367
rfemur -64.9602 -51.1797 18.1809
rtibia 145.978
rfoot -17.8535 13.6415
rtoes -32.6704
lfemur -66.4647 7.71616 -30.3399
ltibia 108.614
lfoot -0.298875 -1.27521
ltoes 8.80357
319
root -1.25407 3.1375 25.9661 -970.202 -8.60754 -880.454
lowerback 71.3613 1.6841 16.3334
upperback 21.5397 -4.8572 6.26695
thorax 4.67274 -9.92109 1.61841
lowerneck -23.6027 -9.3834 -11.8879
upperneck 0.690732 -10.8352 9.87765
head 5.01002 -5.19892 3.74145
rclavicle -2.06736e-014 -2.22639e-014
rhumerus -50.9012 48.2258 -106.318
rradius 32.8328
rwrist -12.6623
rhand -21.0135 -7.46081
rfingers 7.12502
rthumb 5.36133 -37.373
lclavicle -2.06736e-014 -2.22639e-014
lhumerus -219.785 -195.52 256.967
lradius 40.7254
lwrist 54.7107
lhand -35.1815 -5.66922
lfingers 7.12502
lthumb -8.31995 24.1469
rfemur -64.8774 -52.2676 18.0659
rtibia 146.339
rfoot -17.9969 13.7098
rtoes -32.5709
lfemur -66.3618 7.80338 -30.1397
ltibia 108.962
lfoot -0.115893 -0.924934
ltoes 10.2308
320
root -1.25014 3.08322 25.9378 -970.571 -8.34057 -880.602
lowerback 71.2802 1.59202 16.4508
upperback 21.595 -4.98646 6.29659
thorax 4.75661 -10.022 1.62755
lowerneck -23.6661 -9.28987 -11.9512
upperneck 0.814572 -10.6733 9.78724
head 5.03847 -5.11814 3.74139
rclavicle 7.95139e-015 3.33958e-014
rhumerus -51.2604 47.657 -106.979
rradius 32.6079
rwrist -12.8431
rhand -21.3016 -7.82399
rfingers 7.12502
rthumb 5.08311 -37.743
lclavicle 7.95139e-015 3.33958e-014
lhumerus -220.443 -195.269 257.044
lradius 41.1929
lwrist 55.0833
lhand -35.2827 -5.47607
lfingers 7.12502
lthumb -8.41758 24.3362
rfemur -64.9196 -53.2637 18.0682
rtibia 146.691
rfoot -18.0941 13.7601
rtoes -32.5608
lfemur -66.309 7.89238 -29.9343
ltibia 109.288
lfoot 0.0968859 -0.60647
ltoes 11.3314
321
root -1.24559 3.03134 25.9106 -970.938 -8.06125 -880.762
lowerback 71.2134 1.50494 16.5787
upperback 21.6568 -5.11316 6.31876
thorax 4.85016 -10.1235 1.62187
lowerneck -23.7988 -9.23235 -12.0041
upperneck 0.98528 -10.5591 9.7278
head 5.09826 -5.05689 3.74022
rclavicle -1.03368e-014 -4.45278e-014
rhumerus -51.5252 47.0681 -107.6
rradius 32.4535
rwrist -13.1408
rhand -21.5666 -8.29843
rfingers 7.12502
rthumb 4.82731 -38.2234
lclavicle -1.03368e-014 -4.45278e-014
lhumerus -221.048 -195.07 257.09
lradius 41.6293
lwrist 55.4732
lhand -35.3647 -5.25075
lfingers 7.12502
lthumb -8.49674 24.5583
rfemur -64.9333 -54.2116 18.0864
rtibia 147.021
rfoot -18.1513 13.81
rtoes -32.557
lfemur -66.2316 8.00962 -29.7096
ltibia 109.585
lfoot 0.306789 -0.281559
ltoes 12.5019
322
root -1.24021 2.9795 25.8847 -971.29 -7.76797 -880.893
lowerback 71.1642 1.41017 16.7113
upperback 21.6958 -5.23245 6.35124
thorax 4.91902 -10.2211 1.62903
lowerneck -23.9327 -9.15075 -11.9867
upperneck 1.16179 -10.4282 9.62655
head 5.15243 -4.98944 3.71745
rclavicle -1.66979e-014 3.18055e-015
rhumerus -51.6582 46.4431 -108.152
rradius 32.2527
rwrist -13.4167
rhand -21.8578 -8.89689
rfingers 7.12502
rthumb 4.54604 -38.8281
lclavicle -1.66979e-014 3.18055e-015
lhumerus -221.64 -194.8 257.123
lradius 42.0312
lwrist 55.8992
lhand -35.4258 -5.00564
lfingers 7.12502
lthumb -8.55566 24.801
rfemur -64.9773 -55.0272 18.1747
rtibia 147.333
rfoot -18.1838 13.8206
rtoes -32.518
lfemur -66.1783 8.14044 -29.4734
ltibia 109.858
lfoot 0.52912 0.0173609
ltoes 13.2833
323
root -1.23521 2.92872 25.861 -971.652 -7.49013 -881.048
lowerback 71.1643 1.30153 16.8552
upperback 21.7185 -5.35292 6.36876
thorax 4.97281 -10.3177 1.62089
lowerneck -24.079 -9.08189 -11.9542
upperneck 1.34859 -10.3166 9.51691
head 5.2125 -4.93167 3.68657
rclavicle 7.95139e-016 -3.97569e-014
rhumerus -51.669 45.8575 -108.675
rradius 31.9916
rwrist -13.8065
rhand -22.2754 -9.59442
rfingers 7.12502
rthumb 4.14285 -39.5339
lclavicle 7.95139e-016 -3.97569e-014
lhumerus -222.197 -194.483 257.188
lradius 42.428
lwrist 56.3437
lhand -35.4691 -4.82927
lfingers 7.12502
lthumb -8.59747 24.9757
rfemur -65.0316 -55.8149 18.2529
rtibia 147.639
rfoot -18.1823 13.8273
rtoes -32.4572
lfemur -66.0777 8.29875 -29.2555
ltibia 110.077
lfoot 0.783351 0.361543
ltoes 14.1275
324
root -1.23009 2.87944 25.8391 -972.001 -7.19866 -881.201
lowerback 71.1444 1.15668 17.0261
upperback 21.7375 -5.48705 6.34191
thorax 5.02057 -10.4038 1.55721
lowerneck -24.1956 -9.00378 -11.8876
upperneck 1.55159 -10.2047 9.43102
head 5.27436 -4.87091 3.65886
rclavicle 3.49861e-014 -3.18055e-015
rhumerus -51.5551 45.2261 -109.146
rradius 31.6567
rwrist -14.1757
rhand -22.7849 -10.3706
rfingers 7.12502
rthumb 3.65079 -40.3191
lclavicle 3.49861e-014 -3.18055e-015
lhumerus -222.773 -194.207 257.194
lradius 42.8014
lwrist 56.7769
lhand -35.5399 -4.65789
lfingers 7.12502
lthumb -8.6658 25.1442
rfemur -65.1072 -56.5424 18.3657
rtibia 147.933
rfoot -18.1838 13.8354
rtoes -32.469
lfemur -66.0025 8.47011 -29.0162
ltibia 110.287
lfoot 1.04424 0.674024
ltoes 15.0959
325
root -1.22518 2.83133 25.8173 -972.342 -6.92113 -881.355
lowerback 71.0945 1.0248 17.193
upperback 21.7871 -5.63565 6.33772
thorax 5.10528 -10.5066 1.51622
lowerneck -24.3655 -8.93448 -11.8406
upperneck 1.7371 -10.0975 9.34325
head 5.3392 -4.81421 3.63179
rclavicle -4.69132e-014 -2.06736e-014
rhumerus -51.2636 44.5906 -109.355
rradius 31.314
rwrist -14.4662
rhand -23.3644 -10.9912
rfingers 7.12502
rthumb 3.09115 -40.9485
lclavicle -4.69132e-014 -2.06736e-014
lhumerus -223.255 -193.964 257.245
lradius 43.1253
lwrist 57.1608
lhand -35.5838 -4.46695
lfingers 7.12502
lthumb -8.70818 25.3334
rfemur -65.174 -57.301 18.4772
rtibia 148.223
rfoot -18.199 13.7813
rtoes -32.5554
lfemur -65.9129 8.62441 -28.7746
ltibia 110.473
lfoot 1.32193 1.00242
ltoes 16.3398
326
root -1.22026 2.7836 25.7959 -972.683 -6.62799 -881.486
lowerback 71.0425 0.854524 17.3847
upperback 21.8252 -5.80461 6.31359
thorax 5.17845 -10.611 1.4522
lowerneck -24.5613 -8.85371 -11.7648
upperneck 1.97228 -9.97761 9.23923
head 5.42048 -4.74983 3.59572
rclavicle -2.06736e-014 1.74931e-014
rhumerus -50.7931 43.7461 -109.263
rradius 30.9173
rwrist -14.4081
rhand -24.0229 -11.4405
rfingers 7.12502
rthumb 2.45525 -41.4061
lclavicle -2.06736e-014 1.74931e-014
lhumerus -223.766 -193.737 257.267
lradius 43.4505
lwrist 57.5671
lhand -35.6275 -4.30889
lfingers 7.12502
lthumb -8.75039 25.4897
rfemur -65.2658 -57.9394 18.6327
rtibia 148.503
rfoot -18.1421 13.7659
rtoes -32.5497
lfemur -65.8425 8.81448 -28.536
ltibia 110.668
lfoot 1.6416 1.26311
ltoes 17.348
